<?xml version="1.0" encoding="UTF-8"?>
<svg id="Layer_1" data-name="Layer 1" xmlns="http://www.w3.org/2000/svg" viewBox="0 0 502.6 322.7">
  <defs>
    <style>
      .cls-1 {
        fill: none;
        stroke: #fff;
        stroke-miterlimit: 10;
        stroke-width: 25px;
      }

      .cls-2 {
        fill: #fff;
        stroke-width: 0px;
      }
    </style>
  </defs>
  <g>
    <path class="cls-2" d="M380.8,98.5c-35.58,0-71.16,0-106.73,0-9.7,0-14.31-4.68-14.27-14.41.16-40.78,32.46-78.26,73.25-81.96,31.98-2.9,64.35-2.76,96.35-.02,36.52,3.13,67.43,34.81,72.39,71.11.57,4.14.87,8.27.81,12.44-.11,7.8-4.99,12.8-12.79,12.82-23.72.05-47.44.02-71.16.02-12.62,0-25.23,0-37.85,0Z"/>
    <path class="cls-2" d="M381.56,109.18c36.08,0,72.17,0,108.25,0,9.47,0,12.95,3.58,12.79,13.12-.41,24.78-22.98,47.77-47.73,47.88-49.08.22-98.16.23-147.24,0-25.99-.12-48.89-24.81-47.8-50.84.26-6.3,4.41-10.14,11.21-10.15,26.37-.04,52.74-.02,79.11-.02,10.47,0,20.94,0,31.42,0Z"/>
  </g>
  <path class="cls-1" d="M142.39,204.55c78.55,42.18,137.05,46.97,235.45-6.87h0s48.23-20.2,24.86,24.86h0s-143.18,194.25-292.72,4.43c0,0-28.41-37.89,5.82-33.83,9.76,1.15,26.6,11.4,26.6,11.4h0Z"/>
  <g>
    <path class="cls-2" d="M121.01,98.7c-35.58,0-71.16,0-106.73,0C4.57,98.7-.04,94.02,0,84.29.16,43.51,32.46,6.03,73.25,2.33c31.98-2.9,64.35-2.76,96.35-.02,36.52,3.13,67.43,34.81,72.39,71.11.57,4.14.87,8.27.81,12.44-.11,7.8-4.99,12.8-12.79,12.82-23.72.05-47.44.02-71.16.02-12.62,0-25.23,0-37.85,0Z"/>
    <path class="cls-2" d="M121.76,109.39c36.08,0,72.17,0,108.25,0,9.47,0,12.95,3.58,12.79,13.12-.41,24.78-22.98,47.77-47.73,47.88-49.08.22-98.16.23-147.24,0-25.99-.12-48.89-24.81-47.8-50.84.26-6.3,4.41-10.14,11.21-10.15,26.37-.04,52.74-.02,79.11-.02,10.47,0,20.94,0,31.42,0Z"/>
  </g>
</svg>