<?xml version="1.0" encoding="UTF-8"?>
<svg id="Layer_1" data-name="Layer 1" xmlns="http://www.w3.org/2000/svg" viewBox="0 0 592.61 443.33" width="50" height="50">
  <defs>
    <style>
      .cls-1 {
        fill: none;
        stroke: #fff;
        stroke-miterlimit: 10;
        stroke-width: 25px;
      }

      .cls-2 {
        fill: #fff;
        stroke-width: 0px;
      }
    </style>
  </defs>
  <g>
    <path class="cls-2" d="M447.62,116.33c-42.51,0-85.02,0-127.52,0-11.15,0-16.54-5.43-16.54-16.58-.01-48.92,38.5-92.53,86.93-98.61,4.34-.55,8.66-.8,13.01-.8,30.19,0,60.38-.06,90.57.01,48.25.11,91.8,38.93,97.74,86.87.58,4.65.83,9.26.8,13.91-.06,9.34-5.85,15.09-15.21,15.19-.3,0-.6,0-.9,0-42.96,0-85.92,0-128.88,0Z"/>
    <path class="cls-2" d="M448.21,187.83c43.26,0,86.52,0,129.78,0,10.52,0,14.67,4.21,14.62,14.77-.14,30.43-27.3,57.86-57.68,57.92-57.83.1-115.66.1-173.5,0-31.92-.06-59.56-29.5-57.86-61.33.36-6.76,5.33-11.32,12.6-11.34,18.18-.05,36.35-.02,54.53-.02,25.84,0,51.67,0,77.51,0Z"/>
    <path class="cls-2" d="M447.66,174.02c-36.05,0-72.11.02-108.16-.02-10.76-.01-20.17-8.09-21.42-18.18-1.47-11.82,4.97-22.1,15.81-25.02,1.85-.5,3.85-.63,5.78-.63,72.26-.03,144.51-.04,216.77-.01,12.6,0,21.76,9.37,21.75,22.01-.01,12.56-9.24,21.83-21.92,21.84-36.2.04-72.41.01-108.61.01Z"/>
  </g>
  <path class="cls-1" d="M156.71,305.48c93.19,50.04,162.59,55.72,279.33-8.15h0s57.22-23.96,29.49,29.49h0s-169.87,230.46-347.28,5.26c0,0-33.71-44.95,6.91-40.13,11.58,1.37,31.56,13.53,31.56,13.53Z"/>
  <g>
    <path class="cls-2" d="M144.12,116.01c-42.51,0-85.02,0-127.52,0-11.15,0-16.54-5.43-16.54-16.58C.04,50.52,38.56,6.9,86.99.82,91.33.28,95.64.02,99.99.02c30.19,0,60.38-.06,90.57.01,48.25.11,91.8,38.93,97.74,86.87.58,4.65.83,9.26.8,13.91-.06,9.34-5.85,15.09-15.21,15.19-.3,0-.6,0-.9,0-42.96,0-85.92,0-128.88,0Z"/>
    <path class="cls-2" d="M144.71,187.51c43.26,0,86.52,0,129.78,0,10.52,0,14.67,4.21,14.62,14.77-.14,30.43-27.3,57.86-57.68,57.92-57.83.1-115.66.1-173.5,0-31.92-.06-59.56-29.5-57.86-61.33.36-6.76,5.33-11.32,12.6-11.34,18.18-.05,36.35-.02,54.53-.02,25.84,0,51.67,0,77.51,0Z"/>
    <path class="cls-2" d="M144.16,173.7c-36.05,0-72.11.02-108.16-.02-10.76-.01-20.17-8.09-21.42-18.18-1.47-11.82,4.97-22.1,15.81-25.02,1.85-.5,3.85-.63,5.78-.63,72.26-.03,144.51-.04,216.77-.01,12.6,0,21.76,9.37,21.75,22.01-.01,12.56-9.24,21.83-21.92,21.84-36.2.04-72.41.01-108.61.01Z"/>
  </g>
</svg>